<?xml version="1.0" encoding="utf-8"?>
<svg xmlns="http://www.w3.org/2000/svg" viewBox="582 0 518 513.5375" width="518px" height="513.538px" preserveAspectRatio="none"><a id="object-5" transform="matrix(0.9999999999999999, 0, 0, 0.9999999999999999, -2.2737367544323206e-13, 0)"><path d="M 582 188.591 L 582 224.888 L 587.25 224.082 C 608.195 226.598 623.556 223.9 637.201 209.618 C 646.244 200.153 644.66 198.588 643.031 190.914 C 640.974 181.224 584.951 153.107 582.411 153.73 C 582.192 153.784 582 169.417 582 188.591" stroke="none" fill="#757877" fill-rule="evenodd" id="object-0"/><path d="M 674.267 207.26 C 661.213 212.749 647.058 241.174 652.578 250.815 C 664.362 271.396 702.659 246.333 697.471 221.435 C 695.691 212.89 681.497 204.22 674.267 207.26 M 843.485 314.699 C 840.118 318.053 827.244 326.331 815.126 332.933 C 787.466 348.006 960.154 491.73 1005.92 491.73 C 1038.15 491.73 1059.64 450.416 1040.49 425.301 C 1036.44 419.997 977.162 382.18 935.199 358.133 C 929.534 354.886 911.084 343.957 894.199 333.846 C 850.649 307.767 850.502 307.711 843.485 314.699" stroke="none" fill="#7d3400" fill-rule="evenodd" id="object-1"/><path d="M 826.954 144.564 C 820.241 152.654 796.118 176.245 766.352 209.434 C 698.257 285.361 690.005 291.216 701.097 305.771 C 718.862 329.083 766.774 324.678 813.689 294.241 C 835.235 280.263 852.125 273.166 881.927 262.925 C 914.149 251.851 921.71 246.999 920.584 220.406 C 918.245 165.17 876.613 110.656 850.172 123.368" stroke="none" fill="#f77d04" fill-rule="evenodd" id="object-2"/><path d="M 992.309 34.697 C 904.092 41.129 856.469 75.432 892.991 102.783 C 924.476 126.362 938.388 155.85 942.758 200 C 943.33 205.775 947.479 216.332 948.028 221.931 C 952.152 264.032 982.245 271.483 1083.75 252.251 L 1100 246.509 L 1100 144.619 L 1100 40.908 C 1100 40.908 1063.44 37.137 1049.13 35.47 M 1000 109.807 C 992.894 115.397 991.91 127.621 1000 132.555 C 1013.82 140.978 1030.61 127.142 1021.95 114.106" stroke="none" fill="#ffffff" fill-rule="evenodd" id="object-3"/><path d="M 986.5 0.439 C 927.254 3.705 881.728 24.884 852.598 62.73 C 829.729 92.443 764.224 167.563 741.84 189.745 C 729.787 201.69 724.928 202.153 709.5 192.823 C 697.831 185.766 689.774 181.902 683.257 180.237 C 673.296 177.693 624.189 149.777 584.25 123.955 L 582 122.5 L 582.032 137.865 L 582.064 153.23 L 594.282 160.679 C 636.997 186.722 645.587 193.683 642.471 199.73 C 634.267 215.649 614.183 225.535 592.25 224.452 L 582 223.945 L 582 235.292 L 582 246.639 L 585.25 247.12 C 587.038 247.385 592.826 248.076 598.114 248.656 C 613.78 250.375 619.46 252.6 626.5 259.774 C 629.8 263.137 636.775 269.314 642 273.501 C 658.797 286.962 661.708 290.909 663.118 302.143 C 666.715 330.787 693.169 350.02 736.89 355.777 C 762.916 359.204 762.071 358.78 796.218 385.554 C 966.678 519.213 1030.13 541.88 1068.2 482.713 C 1096.43 438.829 1074.86 411.205 956.891 340.193 C 916.96 316.157 889 297.978 889 296.051 C 889 289.161 922.759 285.952 955.5 289.73 C 988.095 293.491 1042.3 291.319 1081.98 284.662 C 1091.6 283.05 1099.58 281.73 1099.73 281.73 C 1099.88 281.73 1100 273.825 1100 264.163 C 1100 247.899 1099.87 246.634 1098.25 247.119 C 1077.74 253.254 1014.08 261.497 995.5 260.422 C 959.01 258.311 950.426 248.634 946.989 205.73 C 943.129 157.549 925.444 122.898 893.191 100.325 C 845.734 67.109 954.622 23.303 1049 37.641 C 1052.58 38.185 1063.38 39.322 1073 40.17 C 1082.63 41.018 1092.64 41.919 1095.25 42.173 L 1100 42.636 L 1100 25.683 C 1100 16.359 1099.85 8.73 1099.66 8.73 C 1096.62 8.73 1063.97 5.214 1053.5 3.759 C 1029.2 0.382 1007.26 -0.705 986.5 0.439 M 999.384 107.102 C 991.569 110.66 992.124 128.958 1000.2 134.078 C 1011.61 141.304 1028.42 130.431 1025.07 117.997 C 1022.62 108.882 1008.57 102.922 999.384 107.102 M 854.631 123.245 C 848.848 124.713 844.387 128.232 836.142 137.83 C 819.14 157.621 802.005 175.946 750.588 229.328 C 694.387 287.676 690.534 294.646 706.316 309.409 C 726.261 328.066 770.225 321.242 814 292.694 C 831.745 281.122 854.802 270.133 877.913 262.234 C 914.356 249.777 918.205 245.495 916.561 219.23 C 913.183 165.272 881.642 116.387 854.631 123.245 M 674.267 207.26 C 661.213 212.749 647.058 241.174 652.578 250.815 C 664.362 271.396 702.659 246.333 697.471 221.435 C 695.691 212.89 681.497 204.22 674.267 207.26 M 843.485 314.699 C 840.118 318.053 827.244 326.331 815.126 332.933 C 787.466 348.006 960.154 491.73 1005.92 491.73 C 1038.15 491.73 1059.64 450.416 1040.49 425.301 C 1036.44 419.997 977.162 382.18 935.199 358.133 C 929.534 354.886 911.084 343.957 894.199 333.846 C 850.649 307.767 850.502 307.711 843.485 314.699" stroke="none" fill="#000000" fill-rule="evenodd" id="object-4"/></a></svg>