<svg xmlns="http://www.w3.org/2000/svg" width="518" height="513.538" preserveAspectRatio="none" viewBox="582 0 518 513.538"><a><path fill="#757877" fill-rule="evenodd" d="M582 188.591v36.297l5.25-.806c20.945 2.516 36.306-.182 49.951-14.464 9.043-9.465 7.459-11.03 5.83-18.704-2.057-9.69-58.08-37.807-60.62-37.184-.219.054-.411 15.687-.411 34.861"/><path fill="#7d3400" fill-rule="evenodd" d="M674.267 207.26c-13.054 5.489-27.209 33.914-21.689 43.555 11.784 20.581 50.081-4.482 44.893-29.38-1.78-8.545-15.974-17.215-23.204-14.175m169.218 107.439c-3.367 3.354-16.241 11.632-28.359 18.234-27.66 15.073 145.028 158.797 190.794 158.797 32.23 0 53.72-41.314 34.57-66.429-4.05-5.304-63.328-43.121-105.291-67.168-5.665-3.247-24.115-14.176-41-24.287-43.55-26.079-43.697-26.135-50.714-19.147"/><path fill="#f77d04" fill-rule="evenodd" d="M826.954 144.564c-6.713 8.09-30.836 31.681-60.602 64.87-68.095 75.927-76.347 81.782-65.255 96.337 17.765 23.312 65.677 18.907 112.592-11.53 21.546-13.978 38.436-21.075 68.238-31.316 32.222-11.074 39.783-15.926 38.657-42.519-2.339-55.236-43.971-109.75-70.412-97.038"/><path fill="#fff" fill-rule="evenodd" d="M992.309 34.697c-88.217 6.432-135.84 40.735-99.318 68.086 31.485 23.579 45.397 53.067 49.767 97.217.572 5.775 4.721 16.332 5.27 21.931 4.124 42.101 34.217 49.552 135.722 30.32l16.25-5.742V40.908s-36.56-3.771-50.87-5.438M1000 109.807c-7.106 5.59-8.09 17.814 0 22.748 13.82 8.423 30.61-5.413 21.95-18.449"/><path fill-rule="evenodd" d="M986.5.439C927.254 3.705 881.728 24.884 852.598 62.73c-22.869 29.713-88.374 104.833-110.758 127.015-12.053 11.945-16.912 12.408-32.34 3.078-11.669-7.057-19.726-10.921-26.243-12.586-9.961-2.544-59.068-30.46-99.007-56.282L582 122.5l.032 15.365.032 15.365 12.218 7.449c42.715 26.043 51.305 33.004 48.189 39.051-8.204 15.919-28.288 25.805-50.221 24.722l-10.25-.507v22.694l3.25.481c1.788.265 7.576.956 12.864 1.536 15.666 1.719 21.346 3.944 28.386 11.118 3.3 3.363 10.275 9.54 15.5 13.727 16.797 13.461 19.708 17.408 21.118 28.642 3.597 28.644 30.051 47.877 73.772 53.634 26.026 3.427 25.181 3.003 59.328 29.777 170.46 133.659 233.912 156.326 271.982 97.159 28.23-43.884 6.66-71.508-111.309-142.52C916.96 316.157 889 297.978 889 296.051c0-6.89 33.759-10.099 66.5-6.321 32.595 3.761 86.8 1.589 126.48-5.068 9.62-1.612 17.6-2.932 17.75-2.932s.27-7.905.27-17.567c0-16.264-.13-17.529-1.75-17.044-20.51 6.135-84.17 14.378-102.75 13.303-36.49-2.111-45.074-11.788-48.511-54.692-3.86-48.181-21.545-82.832-53.798-105.405C845.734 67.109 954.622 23.303 1049 37.641c3.58.544 14.38 1.681 24 2.529 9.63.848 19.64 1.749 22.25 2.003l4.75.463V25.683c0-9.324-.15-16.953-.34-16.953-3.04 0-35.69-3.516-46.16-4.971-24.3-3.377-46.24-4.464-67-3.32m12.884 106.663c-7.815 3.558-7.26 21.856.816 26.976 11.41 7.226 28.22-3.647 24.87-16.081-2.45-9.115-16.5-15.075-25.686-10.895m-144.753 16.143c-5.783 1.468-10.244 4.987-18.489 14.585-17.002 19.791-34.137 38.116-85.554 91.498-56.201 58.348-60.054 65.318-44.272 80.081 19.945 18.657 63.909 11.833 107.684-16.715 17.745-11.572 40.802-22.561 63.913-30.46 36.443-12.457 40.292-16.739 38.648-43.004-3.378-53.958-34.919-102.843-61.93-95.985M674.267 207.26c-13.054 5.489-27.209 33.914-21.689 43.555 11.784 20.581 50.081-4.482 44.893-29.38-1.78-8.545-15.974-17.215-23.204-14.175m169.218 107.439c-3.367 3.354-16.241 11.632-28.359 18.234-27.66 15.073 145.028 158.797 190.794 158.797 32.23 0 53.72-41.314 34.57-66.429-4.05-5.304-63.328-43.121-105.291-67.168-5.665-3.247-24.115-14.176-41-24.287-43.55-26.079-43.697-26.135-50.714-19.147"/></a></svg>