<svg xmlns="http://www.w3.org/2000/svg" width="1170.12" height="377.377" preserveAspectRatio="none" viewBox="129.875 57.212 1170.125 377.377"><a><path fill="#757877" fill-rule="evenodd" d="M136.57 163.175c-3.513 1.64-.653 3.099 2.29 7.255 1.168 1.649 27.798 25.511 31.617 29.109 4.601 4.336 10.249 9.257 15.774 11.437 13.036 5.142 24.914 2.295 17.327-7.249-11.621-14.617-61.822-55.18-67.008-40.552"/><path fill="#7d3400" fill-rule="evenodd" d="M207.839 211.56c-3.262 4.548-2.393 8.828 1.83 9.016 4.094.181 8.045-9.072 4.79-11.217-3.481-2.294-3.37-2.331-6.62 2.201m37.811 22.526c-.582.812-3.171 2.674-5.753 4.136-5.194 2.941 22.603 31.313 36.798 37.56 8.739 3.846 16.069-10.82 8.518-17.04-2.239-1.844-22.434-16.133-22.801-16.133-.131 0-3.405-2.25-7.276-5-7.811-5.549-7.986-5.615-9.486-3.523m159.451 124.826c-2.16 4.121-.909 2.612 3.604-4.35"/><path fill="#f77d04" fill-rule="evenodd" d="M220.236 218.854c-13.453 16.022.827 23.41 19.579 10.325 3.097-2.161 23.343-5.785 22.795-14.184-1.04-15.91-9.405-35.939-15.604-27.822m394.773 119.086c-.7 1.924-10.298 15.125-6.626 16.995 12.232 6.229 16.05 8.707 16.076 19.555.026 14.809-2.729 25.711-20.698 33.048-9.105 3.717-10.686 8.153-4.38 12.794 3.507 2.583 5.08 8.671 5.909 15.478 1.857 15.084 9.805 21.907 18.893 17.384 4.155-2.07 4.112-2.742 6.488-.887 18.383 14.333 28.81 4.373 25.138-29.713-1.408-13.037-.924-13.615 1.642-23.464 1.287-4.947 1.226-10.448.699-18.392-.959-14.3-8.872-20.569-24.205-28.382m-312.94 54.75c-25.015 5.979-32.064 12.785-17.735 16.654 6.635 1.792 5.879 6.628 3.819 11.883-4.312 11.001 3.664 9.547 21.93 10.035 9.364.25 9.713 1.849 12.316 4.82 4.619 5.274 26.721-15.68 30.461-40.085 2.277-14.859 28.204-45.798 28.019-45.967-.187-.169-14.926-3.524-15.638-3.86"/><path fill="#fff" fill-rule="evenodd" d="M623.767 64.722c-6.065 2.452-61.897 39.72-85.29 34.793-25.545-5.38-116.547 41.008-135.333 71.939-11.501 18.938-15.324 15.498-33.217 8.595-21.591-8.328-68.932-12.13-75.442-13.015-27.791-3.781-49.327 4.939-39.04 15.646 6.85 7.128 10.662 18.584 10.842 30.171.16 10.311 15.593 11.402 38.854 4.607 16.018-4.68 28.17-4.423 42.729.926 21.73 7.982 20.096 8.24 19.773 39.925-.26 25.655.514 30.704 9.986 42.458 21.117 26.207 45.227 30.093 137.048 30.093 106.991 0 123.776-2.568 124.795-32.233.467-13.576-6.056-22.794-15.601-34.555-5.27-6.501-7.205-69.761 3.084-95.675 13.77-34.671 26.823-94.723 21.363-101.709"/><path fill-rule="evenodd" d="M623.499 59.039c-7.032 1.843-19.549 9.224-25.009 14.745-9.209 9.309-40.878 20.825-57.266 20.825-14.254 0-38.321 6.496-67.96 18.341-26.916 10.758-46.669 25.018-72.772 52.534-13.824 14.573-14.232 14.737-25.595 10.336-26.433-10.24-38.406-13.045-60.586-14.194-9.502-.492-20.193-1.428-23.756-2.079-19.293-3.528-35.153 1.675-42.762 14.029-2.581 4.191-14.912 20.698-21.5 28.783-4.042 4.96-4.622 5.071-9.167 1.75-1.882-1.375-4.125-2.5-4.986-2.5-1.288 0-15.04-9.509-29.569-20.446a1156 1156 0 0 0-9.717-7.165 1518 1518 0 0 1-10.366-7.633c-17.47-13.053-32.613-13.269-32.613-.466 0 3.514 2.163 6.122 15.105 18.21 4.712 4.4 13.056 12.218 18.543 17.373 12.671 11.904 18.382 15.143 28.267 16.033 5.841.525 7.695 1.079 8.811 2.63.776 1.08 2.87 3.224 4.649 4.765 1.853 1.603 3.237 3.655 3.237 4.8 0 6.91 6.366 12.952 14.564 13.822 4.278.454 6.534 1.25 8.386 2.96 36.881 34.036 51.238 41.37 59.293 30.288 8.382-11.531 4.124-19.138-19.959-35.667-8.599-5.902-15.635-11.109-15.635-11.571 0-1.97 6.344-2.803 13.686-1.799 9.634 1.319 21.496.365 33.197-2.67 22.135-5.74 32.326-5.4 48.306 1.615 12.172 5.344 13.289 8.61 11.959 34.962-1.412 27.966 9.156 47.206 33.5 60.986 7.621 4.314 7.731 3.873-3.724 14.981-20.062 19.453-31.344 26.794-48.534 31.574-26.672 7.416-34.844 18.979-19.352 27.379 4.391 2.381 4.391 2.381 4.391 7.26 0 11.406 6.647 16.288 23.757 17.448 7.35.498 8.961.924 10.798 2.853 5.727 6.012 13.497 2.992 24.288-9.442 7.021-8.089 9.389-12.693 16.652-32.379 7.639-20.703 11.904-27.651 24.459-39.845 7.633-7.413 7.633-7.413 17.55-6.474 14.186 1.344 127.334 1.214 147.704-.169 16.664-1.132 21.865-2.217 30.236-6.307 11.403-5.572 27.324 13.08 21.467 25.145-2.652 5.475-18.781 16.949-23.817 16.949-7.343 0-7.377 18.228-.043 22.618 2.799 1.674 4.984 6.667 4.984 11.37 0 15.603 12.829 28.153 24.076 23.558 3.404-1.389 3.758-1.335 8 1.211 22.348 13.42 33.872-5.981 27.506-46.279-.83-5.223-.717-7.011.829-13.48 6.012-25.116.259-43.571-15.688-50.292-12.276-5.176-28.309-21.111-28.309-28.137 0-12.19-3.17-21.438-10.487-30.583-6.73-8.405-6.721-8.381-6.531-18.986.155-8.291-.087-10.063-1.866-13.923-4.881-10.606-1.849-34.465 7.213-56.599 12.466-30.473 19.385-60.879 21.631-94.978 1.115-17.04-9.226-23.379-29.475-18.07m.743 8.065c-6.099 1.962-11.809 5.421-22.193 13.426-18.357 14.155-35.108 19.757-69.015 23.087-12.56 1.234-25.847 4.923-48.54 13.475-33.733 12.715-52.17 25.614-81.955 57.338-12.586 13.406-15.744 14.419-28.949 9.284-26.076-10.138-38.49-13.092-59.279-14.107-9.502-.464-20.776-1.386-25.052-2.049-20.569-3.188-43.571 6.77-33.484 14.497 7.539 5.775 11.307 14.862 11.838 28.543.456 11.755 7.923 12.972 35.948 5.859 21.161-5.37 35.115-4.235 52.216 4.248 13.526 6.71 14.424 9.776 13.429 45.904-.552 20.064 6.211 32.244 25.796 46.459 20.226 14.681 109.248 21.259 199.203 14.72 41.155-2.992 56.109-31.684 32.205-61.804-6.807-8.578-7.991-12.153-7.248-21.769.484-6.195.311-7.619-1.364-11.106-5.771-12.044-2.575-40.915 7.126-64.254 13.537-32.586 25.614-92.736 20.224-100.746-1.754-2.612-14.081-3.204-20.906-1.005M136.415 163.18c-2.567 2.973-3.58 1.857 29.31 32.335 17.565 16.276 31.092 21.032 36.931 12.984 2.915-4.016 4.405-2.315-13.174-15.037-6.889-4.985-13.887-10.073-15.55-11.305-21.999-16.305-24.429-17.831-30.926-19.425-5.619-1.378-4.975-1.422-6.591.448m140.804 22.231c-1.127 4.113 1.658 7.081 4.811 5.127 2.9-1.796 1.85-6.354-1.552-6.736-2.075-.233-2.86.154-3.259 1.609m-30.741 3.48c-.724.67-2.158 2.481-3.186 4.024s-7.725 9.79-14.882 18.326c-13.803 16.466-14.435 17.76-10.645 21.828 3.604 3.868 13.742 1.983 21.313-3.964 4.494-3.53 8.81-5.936 14.33-7.987 7.393-2.748 8.066-3.79 7.506-11.625-.998-13.917-9.126-25.518-14.436-20.602m-38.639 22.669c-3.262 4.548-2.393 8.828 1.83 9.016 4.094.181 8.045-9.072 4.79-11.217-3.481-2.294-3.37-2.331-6.62 2.201m37.811 22.526c-.582.812-3.171 2.674-5.753 4.136-5.194 2.941 22.603 31.313 36.798 37.56 8.739 3.846 16.069-10.82 8.518-17.04-2.239-1.844-22.434-16.133-22.801-16.133-.131 0-3.405-2.25-7.276-5-7.811-5.549-7.986-5.615-9.486-3.523m395.636 74.868c0 .74-1.546 4.114-3.438 7.499-3.43 6.154-3.43 6.154 2.808 9.762 22.823 13.187 17.959 36.257-10.592 50.323-9.398 4.631-9.537 5.149-3.127 12.343 4.579 5.142 6.557 9.844 6.574 15.603.026 12.801 9.356 20.511 18.634 15.391 2.523-1.391 2.877-1.309 6.946 1.588 18.34 13.065 24.905 1.217 20.145-36.359-.916-7.265-.838-8.703.821-15.563 5.442-22.453 1.918-35.051-11.688-41.782-8.89-4.398-13.52-7.827-20.414-15.12-4.811-5.098-6.669-6.122-6.669-3.685m-236.104 26.447c-22.26 23.792-40.181 36.4-58.681 41.283-15.378 4.059-22.255 7.115-22.255 9.89 0 1.573 6.527 5.012 10.796 5.69 4.443.705 4.537.961 2.104 5.735-4.99 9.789.429 14.494 17.686 15.357 10.076.504 10.782.674 11.784 2.841 5.19 11.223 20.715-8.284 32.317-40.603 5.486-15.283 9.743-22.544 19.866-33.886 7.412-8.305 7.411-8.332-.49-9.938-8.157-1.657-8.186-1.649-13.127 3.631"/><g fill="#fff" fill-rule="evenodd" stroke="#000" stroke-linecap="round" stroke-width=".945" font-size="12"><path d="m61.502 23.403-15 2.3a27 27 0 0 0-.274-3.947q-.31-2.067-.972-3.745a11.8 11.8 0 0 0-1.554-2.808 9.1 9.1 0 0 0-6.585-3.627 13 13 0 0 0-1.415-.073q-3.4 0-6.4 1.7a14.3 14.3 0 0 0-4.138 3.572 18 18 0 0 0-.962 1.328q-2.694 4.041-4.396 10.03a56 56 0 0 0-.604 2.32 67 67 0 0 0-1.737 12.83 76 76 0 0 0-.063 3.12q0 16.8 12.2 16.8 4 0 7.4-2.1t5-5.8q.787-1.575 1.333-3.683l.017-.067a34 34 0 0 0 .59-2.824 41 41 0 0 0 .26-1.826h-12.3l1.4-11.5h27.5l-4.8 38.2h-8.6l-1.5-7a23.59 23.59 0 0 1-16.106 8.313 34 34 0 0 1-3.594.187 32.5 32.5 0 0 1-8.039-.939 22.28 22.28 0 0 1-11.261-6.661 24.9 24.9 0 0 1-5.384-9.825Q.002 52.572.002 46.103a62.9 62.9 0 0 1 1.72-15.086 45.96 45.96 0 0 1 8.73-17.964 36.3 36.3 0 0 1 9.737-8.659A31.9 31.9 0 0 1 36.802.003a31.5 31.5 0 0 1 7.96.954 23 23 0 0 1 9.89 5.296 20.55 20.55 0 0 1 6.422 11.991 30 30 0 0 1 .428 5.159Zm115.4 41 9.9-6.5a18.1 18.1 0 0 0 4.472 4.464 15.47 15.47 0 0 0 8.928 2.636 12.8 12.8 0 0 0 2.763-.282 8.9 8.9 0 0 0 3.487-1.568 6.7 6.7 0 0 0 1.491-1.519 5.36 5.36 0 0 0 .959-3.131 4.3 4.3 0 0 0-.383-1.837q-.412-.887-1.269-1.552l-.148-.111q-1.1-.8-3.7-1.5l-.409-.103q-1.033-.262-3.8-.971l-.491-.126q-4.185-1.066-6.619-1.999a22 22 0 0 1-.981-.401 17.4 17.4 0 0 1-4.206-2.348 11.33 11.33 0 0 1-4.494-9.452 16.63 16.63 0 0 1 5.473-12.445 24 24 0 0 1 1.427-1.255q6.9-5.6 17-5.6 3.8 0 7.3.8a27 27 0 0 1 4.089 1.269 23 23 0 0 1 2.211 1.031q1.9 1.1 3.4 2.6t3 3.8l-9.3 5.8a13.36 13.36 0 0 0-9.656-5.685 18 18 0 0 0-2.044-.115 14 14 0 0 0-2.544.22q-1.494.278-2.686.909a8 8 0 0 0-.92.571q-2.35 1.7-2.35 4.4a3.22 3.22 0 0 0 1.131 2.501 5 5 0 0 0 .519.399 8.4 8.4 0 0 0 1.093.602q1.227.575 3.152 1.15a49 49 0 0 0 1.605.448l3.5.9q9 2.3 12.55 5.45a10.22 10.22 0 0 1 3.203 5.584 15.5 15.5 0 0 1 .347 3.366 17.71 17.71 0 0 1-5.806 13.364 24 24 0 0 1-1.294 1.136 25.3 25.3 0 0 1-11.814 5.289 35 35 0 0 1-6.086.511q-8.2 0-14.1-3.2a28 28 0 0 1-1.946-1.139q-1.492-.961-2.554-1.961-1.7-1.6-3.4-4.4Zm102.9-14h-34.1l-.3 2.9a17 17 0 0 0 .285 3.225q.365 1.902 1.198 3.39a9 9 0 0 0 1.167 1.635 8.7 8.7 0 0 0 5.063 2.754 12.8 12.8 0 0 0 2.287.196q7.9 0 12.6-9.5l10.1 4a35.8 35.8 0 0 1-6.448 8.662 26.36 26.36 0 0 1-19.052 7.438 28.6 28.6 0 0 1-6.757-.754 19.3 19.3 0 0 1-9.543-5.346q-5.9-6.1-5.9-17a39.8 39.8 0 0 1 1.686-11.82 32.7 32.7 0 0 1 6.564-11.83 28 28 0 0 1 8.523-6.815 26 26 0 0 1 11.927-2.735q10 0 15.7 6.4t5.7 17.8a75 75 0 0 1-.006.994q-.015 1.077-.062 1.857a20 20 0 0 1-.032.449q-.092 1.105-.524 3.652zm-212.6 1.5.3-4.9a41.7 41.7 0 0 1 2.251-9.502 30 30 0 0 1 7.099-11.098 26.28 26.28 0 0 1 17.646-7.553 35 35 0 0 1 1.804-.047 29 29 0 0 1 6.663.721q5.352 1.263 8.999 4.74a18 18 0 0 1 .638.639q5.337 5.613 5.763 15.375a40 40 0 0 1 .037 1.725q0 14.7-8.1 23.9a26.4 26.4 0 0 1-19.308 9.16 35 35 0 0 1-1.692.04 28.3 28.3 0 0 1-6.75-.76 19.07 19.07 0 0 1-9.5-5.39 20.3 20.3 0 0 1-4.885-8.977q-.965-3.645-.965-8.073Zm56.8 0 .3-4.9a41.7 41.7 0 0 1 2.251-9.502 30 30 0 0 1 7.099-11.098 26.28 26.28 0 0 1 17.646-7.553 35 35 0 0 1 1.804-.047 29 29 0 0 1 6.663.721q5.352 1.263 8.999 4.74a18 18 0 0 1 .638.639q5.337 5.613 5.763 15.375a40 40 0 0 1 .037 1.725q0 14.7-8.1 23.9a26.4 26.4 0 0 1-19.308 9.16 35 35 0 0 1-1.692.04 28.3 28.3 0 0 1-6.75-.76 19.07 19.07 0 0 1-9.5-5.39 20.3 20.3 0 0 1-4.885-8.977q-.965-3.645-.965-8.073Zm-39.5-12q-.8 3.1-1.3 6.95a62 62 0 0 0-.405 4.157 49 49 0 0 0-.095 2.993q0 3.346.828 5.678a8.9 8.9 0 0 0 1.172 2.272 6.5 6.5 0 0 0 4.587 2.665 10 10 0 0 0 1.313.085 9.07 9.07 0 0 0 6.465-2.669l.185-.181q2.688-2.688 3.82-7.29a24 24 0 0 0 .13-.56 69 69 0 0 0 1.461-9.101 58 58 0 0 0 .239-5.199 17.4 17.4 0 0 0-.254-3.069q-.485-2.71-1.896-4.581a7.1 7.1 0 0 0-2.401-2.08q-1.479-.77-3.349-.77a8.84 8.84 0 0 0-6.442 2.692l-.108.108q-2.396 2.439-3.615 6.624a25 25 0 0 0-.335 1.276Zm56.8 0q-.8 3.1-1.3 6.95a62 62 0 0 0-.405 4.157 49 49 0 0 0-.095 2.993q0 3.346.828 5.678a8.9 8.9 0 0 0 1.172 2.272 6.5 6.5 0 0 0 4.587 2.665 10 10 0 0 0 1.313.085 9.07 9.07 0 0 0 6.465-2.669l.185-.181q2.688-2.688 3.82-7.29a24 24 0 0 0 .13-.56 69 69 0 0 0 1.461-9.101 58 58 0 0 0 .239-5.199 17.4 17.4 0 0 0-.254-3.069q-.485-2.71-1.896-4.581a7.1 7.1 0 0 0-2.401-2.08q-1.479-.77-3.349-.77a8.84 8.84 0 0 0-6.442 2.692l-.108.108q-2.396 2.439-3.615 6.624a25 25 0 0 0-.335 1.276Zm105.3 1.9h19.5l.1-2.6a20.3 20.3 0 0 0-.334-3.865q-1.209-6.217-6.804-6.695a11 11 0 0 0-.962-.04 9.56 9.56 0 0 0-7.095 3.064 13 13 0 0 0-.405.436 14.6 14.6 0 0 0-2.519 4.1q-1.024 2.452-1.481 5.6Z" transform="matrix(2.04388 0 0 2.09388 726.688 57.213)" vector-effect="non-scaling-stroke" stroke-width=".5mm"/><path d="m0 60.701 11.7-7.1q1.299 1.998 1.998 2.948l.002.002a9 9 0 0 0 .9 1.039 12 12 0 0 0 .9.811q5.1 4.5 12.1 4.5a18.8 18.8 0 0 0 4.3-.468 13.5 13.5 0 0 0 5.15-2.382q3.75-2.85 3.75-7.05a8 8 0 0 0-.205-1.873 5.15 5.15 0 0 0-1.695-2.827 7.3 7.3 0 0 0-1.036-.781q-1.027-.649-2.514-1.219-2.35-.9-6.8-2.05a441 441 0 0 1-2.084-.544q-2.916-.768-4.566-1.256a32 32 0 0 1-2.824-.986 40 40 0 0 1-1.776-.764 20.8 20.8 0 0 1-5.428-3.524q-4.739-4.363-4.961-11.289a21 21 0 0 1-.011-.687 22.5 22.5 0 0 1 7.181-16.739 30 30 0 0 1 1.269-1.161A29.82 29.82 0 0 1 32.717.145 39 39 0 0 1 36.1.001a32.1 32.1 0 0 1 8.187.992A23.86 23.86 0 0 1 54.5 6.501q1.5 1.3 2.55 2.55.948 1.129 2.183 3.278l.267.472-11.2 6.9a20 20 0 0 0-3.745-4.553A14.82 14.82 0 0 0 34.4 11.401a16.6 16.6 0 0 0-4.009.463 12.5 12.5 0 0 0-4.541 2.137 9.6 9.6 0 0 0-2.068 2.085 7.44 7.44 0 0 0-1.382 4.415 6.4 6.4 0 0 0 .439 2.405 5.9 5.9 0 0 0 1.561 2.195 13 13 0 0 0 1.127.837l.173.113q.7.45 1.65.85a13 13 0 0 0 .567.22q1.003.366 2.883.93a114 114 0 0 0 3.749 1.052 132 132 0 0 0 1.551.398q2.8.7 5.45 1.45a53 53 0 0 1 1.554.464q.798.252 1.472.499a22 22 0 0 1 1.224.487 20.8 20.8 0 0 1 4.579 2.54 16.5 16.5 0 0 1 3.721 3.81 16.1 16.1 0 0 1 2.814 7.868A20 20 0 0 1 57 48.501a23.76 23.76 0 0 1-7.564 17.676 31 31 0 0 1-1.336 1.224 31.4 31.4 0 0 1-17.912 7.503 41 41 0 0 1-4.088.197 35 35 0 0 1-9.937-1.347A28 28 0 0 1 5.6 68.001a25 25 0 0 1-1.418-1.271q-.668-.649-1.197-1.278a14 14 0 0 1-.285-.351 15 15 0 0 1-.658-.914q-.683-1.018-1.517-2.521A65 65 0 0 1 0 60.701Zm277.9 12.9H263l8.8-72.1h15l-3.2 25.6a35 35 0 0 1 5.938-4.668q4.454-2.732 9.114-3.351a21 21 0 0 1 2.748-.181 18.2 18.2 0 0 1 3.95.404q2.676.596 4.668 2.069a11 11 0 0 1 .882.727 10.5 10.5 0 0 1 3.219 5.872 15.5 15.5 0 0 1 .281 3.028 56 56 0 0 1-.02 1.523q-.04 1.458-.162 2.483l-.018.144q-.2 1.55-.3 2.45l-4.4 36h-15l4.2-32.9.4-5.2a6.2 6.2 0 0 0-.316-2.015 5.24 5.24 0 0 0-1.334-2.085q-1.65-1.6-4.35-1.6a9.2 9.2 0 0 0-4.417 1.17q-1.277.691-2.522 1.791l-.211.189a13.7 13.7 0 0 0-2.369 2.782A10.5 10.5 0 0 0 282 40.101zm-18.3-36.3-14.2 1.8v-.6a16 16 0 0 0-.222-2.729q-.264-1.497-.841-2.697a8 8 0 0 0-.837-1.374 6.06 6.06 0 0 0-4.397-2.461 8 8 0 0 0-.803-.039 7.79 7.79 0 0 0-5.395 2.209q-1.144 1.05-2.158 2.598a21 21 0 0 0-1.097 1.893 28.8 28.8 0 0 0-2.447 6.92q-.721 3.221-.924 6.968a56 56 0 0 0-.079 3.012q0 3.698 1.04 6.266a9.5 9.5 0 0 0 1.26 2.234 7.42 7.42 0 0 0 5.403 2.953 10 10 0 0 0 .997.047 10.14 10.14 0 0 0 8.562-4.565q1.247-1.719 2.219-4.084a29 29 0 0 0 .719-1.951l11.4 2.3a35.3 35.3 0 0 1-3.287 7.064 25.7 25.7 0 0 1-6.413 7.136q-6.5 4.9-15.6 4.9a27.8 27.8 0 0 1-6.544-.727 18.7 18.7 0 0 1-9.506-5.423 20.3 20.3 0 0 1-4.727-8.698q-.831-3.05-.987-6.657a39 39 0 0 1-.036-1.695 39.6 39.6 0 0 1 1.646-11.646A32.4 32.4 0 0 1 219 28.301q8.3-9.5 20.7-9.5a26 26 0 0 1 6.316.725 18.6 18.6 0 0 1 8.084 4.225 16.3 16.3 0 0 1 5.227 9.901 23.5 23.5 0 0 1 .273 3.649Zm-147.2 13.1H78.3l-.3 2.9a17 17 0 0 0 .285 3.225q.365 1.902 1.198 3.389a9 9 0 0 0 1.167 1.636 8.7 8.7 0 0 0 5.063 2.754 12.8 12.8 0 0 0 2.287.196q7.9 0 12.6-9.5l10.1 4a35.8 35.8 0 0 1-6.448 8.662A26.36 26.36 0 0 1 85.2 75.101a28.6 28.6 0 0 1-6.756-.754 19.3 19.3 0 0 1-9.544-5.346q-5.9-6.1-5.9-17a39.8 39.8 0 0 1 1.687-11.82 32.7 32.7 0 0 1 6.563-11.83 28 28 0 0 1 8.523-6.815A26 26 0 0 1 91.7 18.801q10 0 15.7 6.4t5.7 17.8a75 75 0 0 1-.006.994q-.015 1.076-.062 1.856a20 20 0 0 1-.032.45q-.092 1.105-.523 3.652zm47.4-23.3 3.1-6.8h8.5l-5.7 47.4-.2 2.2.3 3.7h-13.9l-.2-3.1.3-4a29.7 29.7 0 0 1-5.061 4.828 19.23 19.23 0 0 1-11.639 3.972 20.8 20.8 0 0 1-5.257-.626 14.4 14.4 0 0 1-7.543-4.674 17.4 17.4 0 0 1-3.285-6.132q-.797-2.544-1.071-5.611a38 38 0 0 1-.144-3.357q0-14.037 5.767-23.553a34 34 0 0 1 1.633-2.447q7.4-10.1 19.1-10.1a20.4 20.4 0 0 1 6.434.959 15.9 15.9 0 0 1 8.866 7.341Zm30.9 46.5h-15l6.5-53.3h14.7l-1.2 9.2a32 32 0 0 1 2.809-3.658q2.572-2.869 5.391-4.342a27 27 0 0 1 2.878-1.241 22 22 0 0 1 2.172-.659q2.45-.6 5.85-.6l-1.6 13.1-.866-.182q-1.219-.255-1.784-.368-.567-.113-1.334-.141a14 14 0 0 0-.516-.009 17.2 17.2 0 0 0-4.948.681 13.6 13.6 0 0 0-5.552 3.219 14 14 0 0 0-1.506 1.662 10 10 0 0 0-1.244 2.088 10 10 0 0 0-.465 1.339q-.41 1.465-.673 3.602a45 45 0 0 0-.112 1.009zm-38.8-16.8 2.2-18.4.3-2.6q0-3.6-1.95-5.75a6.4 6.4 0 0 0-3.812-2.028 9.3 9.3 0 0 0-1.538-.122 8.85 8.85 0 0 0-6.73 3.091q-1.155 1.256-2.135 3.024a22 22 0 0 0-.635 1.235 31 31 0 0 0-2.133 6.237q-.747 3.172-1.086 6.946a75 75 0 0 0-.281 6.667 22.4 22.4 0 0 0 .294 3.807q1.179 6.816 7.095 6.989a11 11 0 0 0 .311.004q5.7 0 9.1-6.4.3-.7.65-1.45a5 5 0 0 0 .183-.439q.167-.465.167-.811Zm-72.7-15h19.5l.1-2.6a20.3 20.3 0 0 0-.333-3.865q-1.21-6.217-6.804-6.695a11 11 0 0 0-.963-.04 9.56 9.56 0 0 0-7.095 3.063 13 13 0 0 0-.405.437 14.6 14.6 0 0 0-2.519 4.099q-1.024 2.453-1.481 5.601Z" transform="matrix(1.75625 0 0 2.04797 733.442 245.784)" vector-effect="non-scaling-stroke" stroke-width=".5mm"/></g></a></svg>