<?xml version="1.0" encoding="utf-8"?>
<svg xmlns="http://www.w3.org/2000/svg" viewBox="129.875 57.2125 1170.125 377.377" width="1170.12px" height="377.377px"
     preserveAspectRatio="none">
    <a id="object-5" transform="matrix(0.9999999999999999, 0, 0, 0.9999999999999999, 0, -5.684341886080802e-14)">
        <path
            d="M 136.57 163.175 C 133.057 164.815 135.917 166.274 138.86 170.43 C 140.028 172.079 166.658 195.941 170.477 199.539 C 175.078 203.875 180.726 208.796 186.251 210.976 C 199.287 216.118 211.165 213.271 203.578 203.727 C 191.957 189.11 141.756 148.547 136.57 163.175"
            stroke="none" fill="#757877" fill-rule="evenodd" id="object-0"/>
        <path
            d="M 207.839 211.56 C 204.577 216.108 205.446 220.388 209.669 220.576 C 213.763 220.757 217.714 211.504 214.459 209.359 C 210.978 207.065 211.089 207.028 207.839 211.56 M 245.65 234.086 C 245.068 234.898 242.479 236.76 239.897 238.222 C 234.703 241.163 262.5 269.535 276.695 275.782 C 285.434 279.628 292.764 264.962 285.213 258.742 C 282.974 256.898 262.779 242.609 262.412 242.609 C 262.281 242.609 259.007 240.359 255.136 237.609 C 247.325 232.06 247.15 231.994 245.65 234.086 M 405.101 358.912 C 402.941 363.033 404.192 361.524 408.705 354.562"
            stroke="none" fill="#7d3400" fill-rule="evenodd" id="object-1"/>
        <path
            d="M 220.236 218.854 C 206.783 234.876 221.063 242.264 239.815 229.179 C 242.912 227.018 263.158 223.394 262.61 214.995 C 261.57 199.085 253.205 179.056 247.006 187.173 M 641.779 306.259 C 641.079 308.183 631.481 321.384 635.153 323.254 C 647.385 329.483 651.203 331.961 651.229 342.809 C 651.255 357.618 648.5 368.52 630.531 375.857 C 621.426 379.574 619.845 384.01 626.151 388.651 C 629.658 391.234 631.231 397.322 632.06 404.129 C 633.917 419.213 641.865 426.036 650.953 421.513 C 655.108 419.443 655.065 418.771 657.441 420.626 C 675.824 434.959 686.251 424.999 682.579 390.913 C 681.171 377.876 681.655 377.298 684.221 367.449 C 685.508 362.502 685.447 357.001 684.92 349.057 C 683.961 334.757 676.048 328.488 660.715 320.675 M 347.775 375.425 C 322.76 381.404 315.711 388.21 330.04 392.079 C 336.675 393.871 335.919 398.707 333.859 403.962 C 329.547 414.963 337.523 413.509 355.789 413.997 C 365.153 414.247 365.502 415.846 368.105 418.817 C 372.724 424.091 394.826 403.137 398.566 378.732 C 400.843 363.873 426.77 332.934 426.585 332.765 C 426.398 332.596 411.659 329.241 410.947 328.905"
            stroke="none" fill="#f77d04" fill-rule="evenodd" id="object-2"/>
        <path
            d="M 623.767 64.722 C 617.702 67.174 561.87 104.442 538.477 99.515 C 512.932 94.135 421.93 140.523 403.144 171.454 C 391.643 190.392 387.82 186.952 369.927 180.049 C 348.336 171.721 300.995 167.919 294.485 167.034 C 266.694 163.253 245.158 171.973 255.445 182.68 C 262.295 189.808 266.107 201.264 266.287 212.851 C 266.447 223.162 281.88 224.253 305.141 217.458 C 321.159 212.778 333.311 213.035 347.87 218.384 C 369.6 226.366 367.966 226.624 367.643 258.309 C 367.383 283.964 368.157 289.013 377.629 300.767 C 398.746 326.974 422.856 330.86 514.677 330.86 C 621.668 330.86 638.453 328.292 639.472 298.627 C 639.939 285.051 633.416 275.833 623.871 264.072 C 618.601 257.571 616.666 194.311 626.955 168.397 C 640.725 133.726 653.778 73.674 648.318 66.688"
            stroke="none" fill="#ffffff" fill-rule="evenodd" id="object-3"/>
        <path
            d="M 623.499 59.039 C 616.467 60.882 603.95 68.263 598.49 73.784 C 589.281 83.093 557.612 94.609 541.224 94.609 C 526.97 94.609 502.903 101.105 473.264 112.95 C 446.348 123.708 426.595 137.968 400.492 165.484 C 386.668 180.057 386.26 180.221 374.897 175.82 C 348.464 165.58 336.491 162.775 314.311 161.626 C 304.809 161.134 294.118 160.198 290.555 159.547 C 271.262 156.019 255.402 161.222 247.793 173.576 C 245.212 177.767 232.881 194.274 226.293 202.359 C 222.251 207.319 221.671 207.43 217.126 204.109 C 215.244 202.734 213.001 201.609 212.14 201.609 C 210.852 201.609 197.1 192.1 182.571 181.163 C 180.908 179.911 176.535 176.687 172.854 173.998 C 169.172 171.309 164.507 167.874 162.488 166.365 C 145.018 153.312 129.875 153.096 129.875 165.899 C 129.875 169.413 132.038 172.021 144.98 184.109 C 149.692 188.509 158.036 196.327 163.523 201.482 C 176.194 213.386 181.905 216.625 191.79 217.515 C 197.631 218.04 199.485 218.594 200.601 220.145 C 201.377 221.225 203.471 223.369 205.25 224.91 C 207.103 226.513 208.487 228.565 208.487 229.71 C 208.487 236.62 214.853 242.662 223.051 243.532 C 227.329 243.986 229.585 244.782 231.437 246.492 C 268.318 280.528 282.675 287.862 290.73 276.78 C 299.112 265.249 294.854 257.642 270.771 241.113 C 262.172 235.211 255.136 230.004 255.136 229.542 C 255.136 227.572 261.48 226.739 268.822 227.743 C 278.456 229.062 290.318 228.108 302.019 225.073 C 324.154 219.333 334.345 219.673 350.325 226.688 C 362.497 232.032 363.614 235.298 362.284 261.65 C 360.872 289.616 371.44 308.856 395.784 322.636 C 403.405 326.95 403.515 326.509 392.06 337.617 C 371.998 357.07 360.716 364.411 343.526 369.191 C 316.854 376.607 308.682 388.17 324.174 396.57 C 328.565 398.951 328.565 398.951 328.565 403.83 C 328.565 415.236 335.212 420.118 352.322 421.278 C 359.672 421.776 361.283 422.202 363.12 424.131 C 368.847 430.143 376.617 427.123 387.408 414.689 C 394.429 406.6 396.797 401.996 404.06 382.31 C 411.699 361.607 415.964 354.659 428.519 342.465 C 436.152 335.052 436.152 335.052 446.069 335.991 C 460.255 337.335 573.403 337.205 593.773 335.822 C 610.437 334.69 615.638 333.605 624.009 329.515 C 635.412 323.943 651.333 342.595 645.476 354.66 C 642.824 360.135 626.695 371.609 621.659 371.609 C 614.316 371.609 614.282 389.837 621.616 394.227 C 624.415 395.901 626.6 400.894 626.6 405.597 C 626.6 421.2 639.429 433.75 650.676 429.155 C 654.08 427.766 654.434 427.82 658.676 430.366 C 681.024 443.786 692.548 424.385 686.182 384.087 C 685.352 378.864 685.465 377.076 687.011 370.607 C 693.023 345.491 687.27 327.036 671.323 320.315 C 659.047 315.139 643.014 299.204 643.014 292.178 C 643.014 279.988 639.844 270.74 632.527 261.595 C 625.797 253.19 625.806 253.214 625.996 242.609 C 626.151 234.318 625.909 232.546 624.13 228.686 C 619.249 218.08 622.281 194.221 631.343 172.087 C 643.809 141.614 650.728 111.208 652.974 77.109 C 654.089 60.069 643.748 53.73 623.499 59.039 M 624.242 67.104 C 618.143 69.066 612.433 72.525 602.049 80.53 C 583.692 94.685 566.941 100.287 533.034 103.617 C 520.474 104.851 507.187 108.54 484.494 117.092 C 450.761 129.807 432.324 142.706 402.539 174.43 C 389.953 187.836 386.795 188.849 373.59 183.714 C 347.514 173.576 335.1 170.622 314.311 169.607 C 304.809 169.143 293.535 168.221 289.259 167.558 C 268.69 164.37 245.688 174.328 255.775 182.055 C 263.314 187.83 267.082 196.917 267.613 210.598 C 268.069 222.353 275.536 223.57 303.561 216.457 C 324.722 211.087 338.676 212.222 355.777 220.705 C 369.303 227.415 370.201 230.481 369.206 266.609 C 368.654 286.673 375.417 298.853 395.002 313.068 C 415.228 327.749 504.25 334.327 594.205 327.788 C 635.36 324.796 650.314 296.104 626.41 265.984 C 619.603 257.406 618.419 253.831 619.162 244.215 C 619.646 238.02 619.473 236.596 617.798 233.109 C 612.027 221.065 615.223 192.194 624.924 168.855 C 638.461 136.269 650.538 76.119 645.148 68.109 C 643.394 65.497 631.067 64.905 624.242 67.104 M 136.415 163.18 C 133.848 166.153 132.835 165.037 165.725 195.515 C 183.29 211.791 196.817 216.547 202.656 208.499 C 205.571 204.483 207.061 206.184 189.482 193.462 C 182.593 188.477 175.595 183.389 173.932 182.157 C 151.933 165.852 149.503 164.326 143.006 162.732 C 137.387 161.354 138.031 161.31 136.415 163.18 M 277.219 185.411 C 276.092 189.524 278.877 192.492 282.03 190.538 C 284.93 188.742 283.88 184.184 280.478 183.802 C 278.403 183.569 277.618 183.956 277.219 185.411 M 246.478 188.891 C 245.754 189.561 244.32 191.372 243.292 192.915 C 242.264 194.458 235.567 202.705 228.41 211.241 C 214.607 227.707 213.975 229.001 217.765 233.069 C 221.369 236.937 231.507 235.052 239.078 229.105 C 243.572 225.575 247.888 223.169 253.408 221.118 C 260.801 218.37 261.474 217.328 260.914 209.493 C 259.916 195.576 251.788 183.975 246.478 188.891 M 207.839 211.56 C 204.577 216.108 205.446 220.388 209.669 220.576 C 213.763 220.757 217.714 211.504 214.459 209.359 C 210.978 207.065 211.089 207.028 207.839 211.56 M 245.65 234.086 C 245.068 234.898 242.479 236.76 239.897 238.222 C 234.703 241.163 262.5 269.535 276.695 275.782 C 285.434 279.628 292.764 264.962 285.213 258.742 C 282.974 256.898 262.779 242.609 262.412 242.609 C 262.281 242.609 259.007 240.359 255.136 237.609 C 247.325 232.06 247.15 231.994 245.65 234.086 M 641.286 308.954 C 641.286 309.694 639.74 313.068 637.848 316.453 C 634.418 322.607 634.418 322.607 640.656 326.215 C 663.479 339.402 658.615 362.472 630.064 376.538 C 620.666 381.169 620.527 381.687 626.937 388.881 C 631.516 394.023 633.494 398.725 633.511 404.484 C 633.537 417.285 642.867 424.995 652.145 419.875 C 654.668 418.484 655.022 418.566 659.091 421.463 C 677.431 434.528 683.996 422.68 679.236 385.104 C 678.32 377.839 678.398 376.401 680.057 369.541 C 685.499 347.088 681.975 334.49 668.369 327.759 C 659.479 323.361 654.849 319.932 647.955 312.639 C 643.144 307.541 641.286 306.517 641.286 308.954 M 405.182 335.401 C 382.922 359.193 365.001 371.801 346.501 376.684 C 331.123 380.743 324.246 383.799 324.246 386.574 C 324.246 388.147 330.773 391.586 335.042 392.264 C 339.485 392.969 339.579 393.225 337.146 397.999 C 332.156 407.788 337.575 412.493 354.832 413.356 C 364.908 413.86 365.614 414.03 366.616 416.197 C 371.806 427.42 387.331 407.913 398.933 375.594 C 404.419 360.311 408.676 353.05 418.799 341.708 C 426.211 333.403 426.21 333.376 418.309 331.77 C 410.152 330.113 410.123 330.121 405.182 335.401"
            stroke="none" fill="#000000" fill-rule="evenodd" id="object-4"/>
        <g transform="matrix(1.211278, 0, 0, 1.217584, -238.321079, -36.330544)">
            <g id="group-1" stroke-linecap="round" fill-rule="evenodd" font-size="9pt" stroke="#000"
               stroke-width="0.25mm" fill="#fff" style="stroke-width: 0.5mm;"
               transform="matrix(1.687372, 0, 0, 1.719704, 796.687085, 76.827241)">
                <path
                    d="M 61.502 23.403 L 46.502 25.703 A 26.655 26.655 0 0 0 46.228 21.756 Q 45.918 19.689 45.256 18.011 A 11.804 11.804 0 0 0 43.702 15.203 A 9.103 9.103 0 0 0 37.117 11.576 A 13.298 13.298 0 0 0 35.702 11.503 Q 32.302 11.503 29.302 13.203 A 14.33 14.33 0 0 0 25.164 16.775 A 17.475 17.475 0 0 0 24.202 18.103 Q 21.508 22.144 19.806 28.133 A 56.063 56.063 0 0 0 19.202 30.453 A 67.039 67.039 0 0 0 17.465 43.283 A 76.243 76.243 0 0 0 17.402 46.403 Q 17.402 63.203 29.602 63.203 Q 33.602 63.203 37.002 61.103 Q 40.402 59.003 42.002 55.303 Q 42.789 53.728 43.335 51.62 A 25.841 25.841 0 0 0 43.352 51.553 A 33.691 33.691 0 0 0 43.942 48.729 A 40.734 40.734 0 0 0 44.202 46.903 L 31.902 46.903 L 33.302 35.403 L 60.802 35.403 L 56.002 73.603 L 47.402 73.603 L 45.902 66.603 A 23.586 23.586 0 0 1 29.796 74.916 A 33.555 33.555 0 0 1 26.202 75.103 A 32.456 32.456 0 0 1 18.163 74.164 A 22.277 22.277 0 0 1 6.902 67.503 A 24.925 24.925 0 0 1 1.518 57.678 Q 0.002 52.572 0.002 46.103 A 62.851 62.851 0 0 1 1.722 31.017 A 45.955 45.955 0 0 1 10.452 13.053 A 36.26 36.26 0 0 1 20.189 4.394 A 31.896 31.896 0 0 1 36.802 0.003 A 31.536 31.536 0 0 1 44.762 0.957 A 23.032 23.032 0 0 1 54.652 6.253 A 20.546 20.546 0 0 1 61.074 18.244 A 29.773 29.773 0 0 1 61.502 23.403 Z M 176.902 64.403 L 186.802 57.903 A 18.076 18.076 0 0 0 191.274 62.367 A 15.473 15.473 0 0 0 200.202 65.003 A 12.804 12.804 0 0 0 202.965 64.721 A 8.883 8.883 0 0 0 206.452 63.153 A 6.727 6.727 0 0 0 207.943 61.634 A 5.356 5.356 0 0 0 208.902 58.503 A 4.306 4.306 0 0 0 208.519 56.666 Q 208.107 55.779 207.25 55.114 A 5.385 5.385 0 0 0 207.102 55.003 Q 206.002 54.203 203.402 53.503 A 139.72 139.72 0 0 1 202.993 53.4 Q 201.96 53.138 199.193 52.429 A 5964.651 5964.651 0 0 1 198.702 52.303 Q 194.517 51.237 192.083 50.304 A 21.796 21.796 0 0 1 191.102 49.903 A 17.443 17.443 0 0 1 186.896 47.555 A 11.327 11.327 0 0 1 182.402 38.103 A 16.634 16.634 0 0 1 187.875 25.658 A 23.461 23.461 0 0 1 189.302 24.403 Q 196.202 18.803 206.302 18.803 Q 210.102 18.803 213.602 19.603 A 26.99 26.99 0 0 1 217.691 20.872 A 22.518 22.518 0 0 1 219.902 21.903 Q 221.802 23.003 223.302 24.503 Q 224.802 26.003 226.302 28.303 L 217.002 34.103 A 13.356 13.356 0 0 0 207.346 28.418 A 17.746 17.746 0 0 0 205.302 28.303 A 13.896 13.896 0 0 0 202.758 28.523 Q 201.264 28.801 200.072 29.432 A 7.751 7.751 0 0 0 199.152 30.003 Q 196.802 31.703 196.802 34.403 A 3.22 3.22 0 0 0 197.933 36.904 A 4.643 4.643 0 0 0 198.452 37.303 A 8.44 8.44 0 0 0 199.545 37.905 Q 200.772 38.48 202.697 39.055 A 48.777 48.777 0 0 0 204.302 39.503 L 207.802 40.403 Q 216.802 42.703 220.352 45.853 A 10.224 10.224 0 0 1 223.555 51.437 A 15.448 15.448 0 0 1 223.902 54.803 A 17.712 17.712 0 0 1 218.096 68.167 A 23.596 23.596 0 0 1 216.802 69.303 A 25.308 25.308 0 0 1 204.988 74.592 A 34.804 34.804 0 0 1 198.902 75.103 Q 190.702 75.103 184.802 71.903 A 28.128 28.128 0 0 1 182.856 70.764 Q 181.364 69.803 180.302 68.803 Q 178.602 67.203 176.902 64.403 Z M 279.802 50.403 L 245.702 50.403 L 245.402 53.303 A 17.118 17.118 0 0 0 245.687 56.528 Q 246.052 58.43 246.885 59.918 A 9.057 9.057 0 0 0 248.052 61.553 A 8.686 8.686 0 0 0 253.115 64.307 A 12.746 12.746 0 0 0 255.402 64.503 Q 263.302 64.503 268.002 55.003 L 278.102 59.003 A 35.779 35.779 0 0 1 271.654 67.665 A 26.359 26.359 0 0 1 252.602 75.103 A 28.562 28.562 0 0 1 245.845 74.349 A 19.309 19.309 0 0 1 236.302 69.003 Q 230.402 62.903 230.402 52.003 A 39.771 39.771 0 0 1 232.088 40.183 A 32.714 32.714 0 0 1 238.652 28.353 A 28.01 28.01 0 0 1 247.175 21.538 A 26.004 26.004 0 0 1 259.102 18.803 Q 269.102 18.803 274.802 25.203 Q 280.502 31.603 280.502 43.003 A 74.714 74.714 0 0 1 280.496 43.997 Q 280.481 45.074 280.434 45.854 A 20.065 20.065 0 0 1 280.402 46.303 Q 280.31 47.408 279.878 49.955 A 153.104 153.104 0 0 1 279.802 50.403 Z M 67.202 51.903 L 67.502 47.003 A 41.648 41.648 0 0 1 69.753 37.501 A 29.997 29.997 0 0 1 76.852 26.403 A 26.281 26.281 0 0 1 94.498 18.85 A 34.656 34.656 0 0 1 96.302 18.803 A 28.991 28.991 0 0 1 102.965 19.524 Q 108.317 20.787 111.964 24.264 A 18.431 18.431 0 0 1 112.602 24.903 Q 117.939 30.516 118.365 40.278 A 39.567 39.567 0 0 1 118.402 42.003 Q 118.402 56.703 110.302 65.903 A 26.393 26.393 0 0 1 90.994 75.063 A 34.886 34.886 0 0 1 89.302 75.103 A 28.263 28.263 0 0 1 82.552 74.343 A 19.074 19.074 0 0 1 73.052 68.953 A 20.312 20.312 0 0 1 68.167 59.976 Q 67.202 56.331 67.202 51.903 Z M 124.002 51.903 L 124.302 47.003 A 41.648 41.648 0 0 1 126.553 37.501 A 29.997 29.997 0 0 1 133.652 26.403 A 26.281 26.281 0 0 1 151.298 18.85 A 34.656 34.656 0 0 1 153.102 18.803 A 28.991 28.991 0 0 1 159.765 19.524 Q 165.117 20.787 168.764 24.264 A 18.431 18.431 0 0 1 169.402 24.903 Q 174.739 30.516 175.165 40.278 A 39.567 39.567 0 0 1 175.202 42.003 Q 175.202 56.703 167.102 65.903 A 26.393 26.393 0 0 1 147.794 75.063 A 34.886 34.886 0 0 1 146.102 75.103 A 28.263 28.263 0 0 1 139.352 74.343 A 19.074 19.074 0 0 1 129.852 68.953 A 20.312 20.312 0 0 1 124.967 59.976 Q 124.002 56.331 124.002 51.903 Z M 84.502 39.903 Q 83.702 43.003 83.202 46.853 A 62.02 62.02 0 0 0 82.797 51.01 A 48.57 48.57 0 0 0 82.702 54.003 Q 82.702 57.349 83.53 59.681 A 8.902 8.902 0 0 0 84.702 61.953 A 6.499 6.499 0 0 0 89.289 64.618 A 9.769 9.769 0 0 0 90.602 64.703 A 9.065 9.065 0 0 0 97.067 62.034 A 11.9 11.9 0 0 0 97.252 61.853 Q 99.94 59.165 101.072 54.563 A 23.466 23.466 0 0 0 101.202 54.003 A 69.432 69.432 0 0 0 102.663 44.902 A 57.817 57.817 0 0 0 102.902 39.703 A 17.441 17.441 0 0 0 102.648 36.634 Q 102.163 33.924 100.752 32.053 A 7.128 7.128 0 0 0 98.351 29.973 Q 96.872 29.203 95.002 29.203 A 8.843 8.843 0 0 0 88.56 31.895 A 11.256 11.256 0 0 0 88.452 32.003 Q 86.056 34.442 84.837 38.627 A 25.164 25.164 0 0 0 84.502 39.903 Z M 141.302 39.903 Q 140.502 43.003 140.002 46.853 A 62.02 62.02 0 0 0 139.597 51.01 A 48.57 48.57 0 0 0 139.502 54.003 Q 139.502 57.349 140.33 59.681 A 8.902 8.902 0 0 0 141.502 61.953 A 6.499 6.499 0 0 0 146.089 64.618 A 9.769 9.769 0 0 0 147.402 64.703 A 9.065 9.065 0 0 0 153.867 62.034 A 11.9 11.9 0 0 0 154.052 61.853 Q 156.74 59.165 157.872 54.563 A 23.466 23.466 0 0 0 158.002 54.003 A 69.432 69.432 0 0 0 159.463 44.902 A 57.817 57.817 0 0 0 159.702 39.703 A 17.441 17.441 0 0 0 159.448 36.634 Q 158.963 33.924 157.552 32.053 A 7.128 7.128 0 0 0 155.151 29.973 Q 153.672 29.203 151.802 29.203 A 8.843 8.843 0 0 0 145.36 31.895 A 11.256 11.256 0 0 0 145.252 32.003 Q 142.856 34.442 141.637 38.627 A 25.164 25.164 0 0 0 141.302 39.903 Z M 246.602 41.803 L 266.102 41.803 L 266.202 39.203 A 20.344 20.344 0 0 0 265.868 35.338 Q 264.659 29.121 259.064 28.643 A 11.307 11.307 0 0 0 258.102 28.603 A 9.557 9.557 0 0 0 251.007 31.667 A 12.808 12.808 0 0 0 250.602 32.103 A 14.619 14.619 0 0 0 248.083 36.203 Q 247.059 38.655 246.602 41.803 Z"
                    vector-effect="non-scaling-stroke"/>
            </g>
            <g id="group-2" stroke-linecap="round" fill-rule="evenodd" font-size="9pt" stroke="#000"
               stroke-width="0.25mm" fill="#fff" style="stroke-width: 0.5mm;"
               transform="matrix(1.449915, 0, 0, 1.681998, 802.262524, 231.700122)">
                <path
                    d="M 0 60.701 L 11.7 53.601 Q 12.999 55.599 13.698 56.549 A 8.667 8.667 0 0 0 13.7 56.551 A 9.163 9.163 0 0 0 14.6 57.59 A 12.15 12.15 0 0 0 15.5 58.401 Q 20.6 62.901 27.6 62.901 A 18.752 18.752 0 0 0 31.9 62.433 A 13.512 13.512 0 0 0 37.05 60.051 Q 40.8 57.201 40.8 53.001 A 8.051 8.051 0 0 0 40.595 51.128 A 5.147 5.147 0 0 0 38.9 48.301 A 7.332 7.332 0 0 0 37.864 47.52 Q 36.837 46.871 35.35 46.301 Q 33 45.401 28.55 44.251 A 440.713 440.713 0 0 1 26.466 43.707 Q 23.55 42.939 21.9 42.451 A 32.01 32.01 0 0 1 19.076 41.465 A 39.538 39.538 0 0 1 17.3 40.701 A 20.818 20.818 0 0 1 11.872 37.177 Q 7.133 32.814 6.911 25.888 A 21.441 21.441 0 0 1 6.9 25.201 A 22.491 22.491 0 0 1 14.081 8.462 A 29.769 29.769 0 0 1 15.35 7.301 A 29.824 29.824 0 0 1 32.717 0.145 A 38.893 38.893 0 0 1 36.1 0.001 A 32.133 32.133 0 0 1 44.287 0.993 A 23.855 23.855 0 0 1 54.5 6.501 Q 56 7.801 57.05 9.051 Q 57.998 10.18 59.233 12.329 A 50.408 50.408 0 0 1 59.5 12.801 L 48.3 19.701 A 19.937 19.937 0 0 0 44.555 15.148 A 14.821 14.821 0 0 0 34.4 11.401 A 16.556 16.556 0 0 0 30.391 11.864 A 12.457 12.457 0 0 0 25.85 14.001 A 9.551 9.551 0 0 0 23.782 16.086 A 7.444 7.444 0 0 0 22.4 20.501 A 6.39 6.39 0 0 0 22.839 22.906 A 5.891 5.891 0 0 0 24.4 25.101 A 12.898 12.898 0 0 0 25.527 25.938 A 14.225 14.225 0 0 0 25.7 26.051 Q 26.4 26.501 27.35 26.901 A 12.718 12.718 0 0 0 27.917 27.121 Q 28.92 27.487 30.8 28.051 A 113.524 113.524 0 0 0 34.549 29.103 A 131.857 131.857 0 0 0 36.1 29.501 Q 38.9 30.201 41.55 30.951 A 53.272 53.272 0 0 1 43.104 31.415 Q 43.902 31.667 44.576 31.914 A 21.449 21.449 0 0 1 45.8 32.401 A 20.756 20.756 0 0 1 50.379 34.941 A 16.533 16.533 0 0 1 54.1 38.751 A 16.087 16.087 0 0 1 56.914 46.619 A 20.287 20.287 0 0 1 57 48.501 A 23.764 23.764 0 0 1 49.436 66.177 A 31.322 31.322 0 0 1 48.1 67.401 A 31.402 31.402 0 0 1 30.188 74.904 A 41.392 41.392 0 0 1 26.1 75.101 A 35.085 35.085 0 0 1 16.163 73.754 A 28.028 28.028 0 0 1 5.6 68.001 A 24.979 24.979 0 0 1 4.182 66.73 Q 3.514 66.081 2.985 65.452 A 13.69 13.69 0 0 1 2.7 65.101 A 15.11 15.11 0 0 1 2.042 64.187 Q 1.359 63.169 0.525 61.666 A 65.424 65.424 0 0 1 0 60.701 Z M 277.9 73.601 L 263 73.601 L 271.8 1.501 L 286.8 1.501 L 283.6 27.101 A 34.846 34.846 0 0 1 289.538 22.433 Q 293.992 19.701 298.652 19.082 A 20.851 20.851 0 0 1 301.4 18.901 A 18.177 18.177 0 0 1 305.35 19.305 Q 308.026 19.901 310.018 21.374 A 11.029 11.029 0 0 1 310.9 22.101 A 10.489 10.489 0 0 1 314.119 27.973 A 15.54 15.54 0 0 1 314.4 31.001 A 55.547 55.547 0 0 1 314.38 32.524 Q 314.34 33.982 314.218 35.007 A 15.345 15.345 0 0 1 314.2 35.151 Q 314 36.701 313.9 37.601 L 309.5 73.601 L 294.5 73.601 L 298.7 40.701 L 299.1 35.501 A 6.18 6.18 0 0 0 298.784 33.486 A 5.237 5.237 0 0 0 297.45 31.401 Q 295.8 29.801 293.1 29.801 A 9.18 9.18 0 0 0 288.683 30.971 Q 287.406 31.662 286.161 32.762 A 17.168 17.168 0 0 0 285.95 32.951 A 13.707 13.707 0 0 0 283.581 35.733 A 10.529 10.529 0 0 0 282 40.101 L 277.9 73.601 Z M 259.6 37.301 L 245.4 39.101 L 245.4 38.501 A 15.743 15.743 0 0 0 245.178 35.772 Q 244.914 34.275 244.337 33.075 A 7.986 7.986 0 0 0 243.5 31.701 A 6.061 6.061 0 0 0 239.103 29.24 A 8.07 8.07 0 0 0 238.3 29.201 A 7.787 7.787 0 0 0 232.905 31.41 Q 231.761 32.46 230.747 34.008 A 20.986 20.986 0 0 0 229.65 35.901 A 28.779 28.779 0 0 0 227.203 42.821 Q 226.482 46.042 226.279 49.789 A 55.787 55.787 0 0 0 226.2 52.801 Q 226.2 56.499 227.24 59.067 A 9.523 9.523 0 0 0 228.5 61.301 A 7.417 7.417 0 0 0 233.903 64.254 A 10.348 10.348 0 0 0 234.9 64.301 A 10.142 10.142 0 0 0 243.462 59.736 Q 244.709 58.017 245.681 55.652 A 29.305 29.305 0 0 0 246.4 53.701 L 257.8 56.001 A 35.251 35.251 0 0 1 254.513 63.065 A 25.738 25.738 0 0 1 248.1 70.201 Q 241.6 75.101 232.5 75.101 A 27.794 27.794 0 0 1 225.956 74.374 A 18.71 18.71 0 0 1 216.45 68.951 A 20.323 20.323 0 0 1 211.723 60.253 Q 210.892 57.203 210.736 53.596 A 39.253 39.253 0 0 1 210.7 51.901 A 39.545 39.545 0 0 1 212.346 40.255 A 32.42 32.42 0 0 1 219 28.301 Q 227.3 18.801 239.7 18.801 A 26.06 26.06 0 0 1 246.016 19.526 A 18.598 18.598 0 0 1 254.1 23.751 A 16.285 16.285 0 0 1 259.327 33.652 A 23.479 23.479 0 0 1 259.6 37.301 Z M 112.4 50.401 L 78.3 50.401 L 78 53.301 A 17.118 17.118 0 0 0 78.285 56.526 Q 78.65 58.428 79.483 59.915 A 9.057 9.057 0 0 0 80.65 61.551 A 8.686 8.686 0 0 0 85.713 64.305 A 12.746 12.746 0 0 0 88 64.501 Q 95.9 64.501 100.6 55.001 L 110.7 59.001 A 35.779 35.779 0 0 1 104.252 67.663 A 26.359 26.359 0 0 1 85.2 75.101 A 28.562 28.562 0 0 1 78.444 74.347 A 19.309 19.309 0 0 1 68.9 69.001 Q 63 62.901 63 52.001 A 39.771 39.771 0 0 1 64.687 40.181 A 32.714 32.714 0 0 1 71.25 28.351 A 28.01 28.01 0 0 1 79.773 21.536 A 26.004 26.004 0 0 1 91.7 18.801 Q 101.7 18.801 107.4 25.201 Q 113.1 31.601 113.1 43.001 A 74.714 74.714 0 0 1 113.094 43.995 Q 113.079 45.071 113.032 45.851 A 20.065 20.065 0 0 1 113 46.301 Q 112.908 47.406 112.477 49.953 A 153.104 153.104 0 0 1 112.4 50.401 Z M 159.8 27.101 L 162.9 20.301 L 171.4 20.301 L 165.7 67.701 L 165.5 69.901 L 165.8 73.601 L 151.9 73.601 L 151.7 70.501 L 152 66.501 A 29.648 29.648 0 0 1 146.939 71.329 A 19.233 19.233 0 0 1 135.3 75.301 A 20.823 20.823 0 0 1 130.043 74.675 A 14.398 14.398 0 0 1 122.5 70.001 A 17.366 17.366 0 0 1 119.215 63.869 Q 118.418 61.325 118.144 58.258 A 37.753 37.753 0 0 1 118 54.901 Q 118 40.864 123.767 31.348 A 33.621 33.621 0 0 1 125.4 28.901 Q 132.8 18.801 144.5 18.801 A 20.409 20.409 0 0 1 150.934 19.76 A 15.889 15.889 0 0 1 159.8 27.101 Z M 190.7 73.601 L 175.7 73.601 L 182.2 20.301 L 196.9 20.301 L 195.7 29.501 A 32.339 32.339 0 0 1 198.509 25.843 Q 201.081 22.974 203.9 21.501 A 26.613 26.613 0 0 1 206.778 20.26 A 21.506 21.506 0 0 1 208.95 19.601 Q 211.4 19.001 214.8 19.001 L 213.2 32.101 A 771.962 771.962 0 0 0 212.334 31.919 Q 211.115 31.664 210.55 31.551 Q 209.983 31.438 209.216 31.41 A 14.327 14.327 0 0 0 208.7 31.401 A 17.169 17.169 0 0 0 203.752 32.082 A 13.617 13.617 0 0 0 198.2 35.301 A 13.955 13.955 0 0 0 196.694 36.963 A 10.118 10.118 0 0 0 195.45 39.051 A 10.355 10.355 0 0 0 194.985 40.39 Q 194.575 41.855 194.312 43.992 A 44.925 44.925 0 0 0 194.2 45.001 L 190.7 73.601 Z M 151.9 56.801 L 154.1 38.401 L 154.4 35.801 Q 154.4 32.201 152.45 30.051 A 6.415 6.415 0 0 0 148.638 28.023 A 9.294 9.294 0 0 0 147.1 27.901 A 8.847 8.847 0 0 0 140.37 30.992 Q 139.215 32.248 138.235 34.016 A 22.36 22.36 0 0 0 137.6 35.251 A 31.069 31.069 0 0 0 135.467 41.488 Q 134.72 44.66 134.381 48.434 A 74.721 74.721 0 0 0 134.1 55.101 A 22.441 22.441 0 0 0 134.394 58.908 Q 135.573 65.724 141.489 65.897 A 10.651 10.651 0 0 0 141.8 65.901 Q 147.5 65.901 150.9 59.501 Q 151.2 58.801 151.55 58.051 A 5.224 5.224 0 0 0 151.733 57.612 Q 151.9 57.147 151.9 56.801 Z M 79.2 41.801 L 98.7 41.801 L 98.8 39.201 A 20.344 20.344 0 0 0 98.467 35.336 Q 97.257 29.119 91.663 28.641 A 11.307 11.307 0 0 0 90.7 28.601 A 9.557 9.557 0 0 0 83.605 31.664 A 12.808 12.808 0 0 0 83.2 32.101 A 14.619 14.619 0 0 0 80.681 36.2 Q 79.657 38.653 79.2 41.801 Z"
                    vector-effect="non-scaling-stroke"/>
            </g>
        </g>
    </a>
</svg>
